<?xml version="1.0" encoding="utf-8"?>
<!-- Generator: Adobe Illustrator 16.0.0, SVG Export Plug-In . SVG Version: 6.00 Build 0)  -->
<!DOCTYPE svg PUBLIC "-//W3C//DTD SVG 1.1//EN" "http://www.w3.org/Graphics/SVG/1.1/DTD/svg11.dtd">
<svg version="1.1" id="Laag_1" xmlns="http://www.w3.org/2000/svg" xmlns:xlink="http://www.w3.org/1999/xlink" x="0px" y="0px"
	 width="275px" height="40px" viewBox="0 0 275 40" enable-background="new 0 0 275 40" xml:space="preserve">
<g>
	<path fill="#FFFFFF" d="M13.311,27.482c0.553,0,1.05-0.021,1.494-0.062c0.442-0.042,0.843-0.09,1.203-0.146l2.407-10h6.473
		l-3.485,14.398c-0.775,0.305-1.895,0.601-3.361,0.892C16.574,32.854,14.707,33,12.439,33c-1.937,0-3.645-0.283-5.125-0.85
		c-1.48-0.566-2.718-1.377-3.714-2.428s-1.743-2.324-2.241-3.817c-0.498-1.494-0.747-3.182-0.747-5.062
		c0-2.158,0.38-4.301,1.141-6.431c0.761-2.13,1.888-4.032,3.382-5.706C6.63,7.033,8.483,5.67,10.696,4.62
		c2.213-1.052,4.758-1.578,7.635-1.578c1.328,0,2.731,0.194,4.212,0.581c1.479,0.388,2.814,0.969,4.004,1.743l-2.323,5.021
		c-0.969-0.608-1.999-1.064-3.091-1.369c-1.093-0.304-2.165-0.457-3.216-0.457c-1.688,0-3.188,0.318-4.502,0.954
		c-1.314,0.637-2.428,1.5-3.34,2.593C9.161,13.202,8.469,14.467,8,15.905c-0.471,1.438-0.705,2.96-0.705,4.564
		c0,2.435,0.504,4.212,1.514,5.331C9.818,26.922,11.319,27.482,13.311,27.482z"/>
	<path fill="#FFFFFF" d="M38.828,3.914c1.853,0,3.472,0.222,4.855,0.664c1.383,0.443,2.532,1.037,3.444,1.785
		c0.913,0.746,1.59,1.625,2.033,2.635c0.442,1.009,0.664,2.068,0.664,3.174c0,0.913-0.104,1.812-0.311,2.697
		c-0.208,0.886-0.595,1.729-1.162,2.531c-0.567,0.802-1.328,1.542-2.282,2.219c-0.954,0.679-2.178,1.252-3.672,1.723
		c0.774,1.438,1.569,3.182,2.386,5.228c0.816,2.048,1.583,4.191,2.303,6.432h-6.929c-0.637-1.908-1.28-3.797-1.929-5.664
		c-0.65-1.867-1.376-3.479-2.178-4.833h-3.237L30.281,33H23.85l6.763-28.339c1.494-0.276,2.946-0.47,4.356-0.581
		C36.38,3.969,37.667,3.914,38.828,3.914z M38.621,9.39c-0.47,0-0.954,0.015-1.452,0.042c-0.498,0.028-0.913,0.055-1.245,0.083
		l-1.867,7.884h2.2c1.327,0,2.448-0.125,3.361-0.374c0.913-0.249,1.645-0.581,2.199-0.996c0.553-0.415,0.947-0.892,1.183-1.432
		c0.234-0.54,0.352-1.085,0.352-1.638c0-0.47-0.069-0.92-0.208-1.349s-0.388-0.81-0.747-1.141c-0.36-0.333-0.844-0.595-1.452-0.789
		C40.335,9.487,39.561,9.39,38.621,9.39z"/>
	<path fill="#FFFFFF" d="M47.749,33l6.888-28.754h18.797l-1.328,5.311H59.782l-1.328,5.809h10.872l-1.286,5.229H57.168l-1.66,7.054
		h13.278L67.458,33H47.749z"/>
	<path fill="#FFFFFF" d="M69.076,33l6.888-28.754h18.797l-1.328,5.311H81.109l-1.328,5.809h10.872l-1.286,5.229H78.496l-1.66,7.054
		h13.277L88.786,33H69.076z"/>
	<path fill="#FFFFFF" d="M109.823,33c-1.162-3.264-2.456-6.528-3.879-9.792c-1.426-3.264-2.967-6.349-4.627-9.254L96.752,33h-6.349
		l6.888-28.754h4.938c0.636,0.968,1.321,2.109,2.055,3.423c0.732,1.313,1.486,2.732,2.261,4.253c0.773,1.521,1.548,3.105,2.323,4.75
		c0.774,1.646,1.507,3.272,2.2,4.875l4.107-17.302h6.432L114.677,33H109.823z"/>
	<path fill="#FFFFFF" d="M146.046,15.075c0,2.794-0.456,5.297-1.369,7.51c-0.913,2.214-2.22,4.087-3.921,5.622
		s-3.77,2.718-6.203,3.548c-2.435,0.83-5.187,1.245-8.258,1.245c-1.162,0-2.504-0.069-4.025-0.207
		c-1.521-0.14-2.987-0.36-4.398-0.665l6.681-27.758c1.577-0.305,3.091-0.519,4.544-0.644c1.452-0.125,2.759-0.187,3.92-0.187
		c2.047,0,3.88,0.276,5.498,0.83s2.988,1.342,4.108,2.365c1.119,1.023,1.971,2.241,2.552,3.652
		C145.756,11.796,146.046,13.36,146.046,15.075z M125.424,27.439c0.304,0.028,0.615,0.049,0.933,0.062s0.753,0.021,1.307,0.021
		c1.798,0,3.423-0.276,4.875-0.83c1.452-0.553,2.683-1.349,3.693-2.386s1.791-2.309,2.345-3.817c0.553-1.507,0.83-3.202,0.83-5.083
		c0-0.968-0.125-1.847-0.374-2.635c-0.249-0.789-0.657-1.466-1.224-2.033c-0.567-0.566-1.301-1.002-2.199-1.307
		c-0.899-0.304-1.985-0.457-3.257-0.457c-0.83,0-1.674,0.042-2.531,0.124L125.424,27.439z"/>
	<path fill="#FFFFFF" d="M159.323,3.914c1.854,0,3.472,0.222,4.854,0.664c1.384,0.443,2.531,1.037,3.444,1.785
		c0.913,0.746,1.591,1.625,2.033,2.635c0.442,1.009,0.663,2.068,0.663,3.174c0,0.913-0.104,1.812-0.311,2.697
		c-0.208,0.886-0.595,1.729-1.161,2.531c-0.567,0.802-1.328,1.542-2.282,2.219c-0.955,0.679-2.179,1.252-3.672,1.723
		c0.773,1.438,1.568,3.182,2.385,5.228c0.815,2.048,1.584,4.191,2.304,6.432h-6.93c-0.637-1.908-1.279-3.797-1.93-5.664
		s-1.376-3.479-2.178-4.833h-3.237L150.775,33h-6.432l6.764-28.339c1.494-0.276,2.946-0.47,4.357-0.581
		C156.875,3.969,158.162,3.914,159.323,3.914z M159.116,9.39c-0.471,0-0.954,0.015-1.453,0.042
		c-0.497,0.028-0.912,0.055-1.244,0.083l-1.868,7.884h2.2c1.327,0,2.448-0.125,3.36-0.374c0.914-0.249,1.646-0.581,2.2-0.996
		c0.553-0.415,0.947-0.892,1.183-1.432c0.234-0.54,0.353-1.085,0.353-1.638c0-0.47-0.069-0.92-0.208-1.349s-0.388-0.81-0.746-1.141
		c-0.36-0.333-0.845-0.595-1.452-0.789C160.831,9.487,160.056,9.39,159.116,9.39z"/>
	<path fill="#FFFFFF" d="M175.132,4.246h6.474L174.676,33h-6.432L175.132,4.246z"/>
	<path fill="#FFFFFF" d="M185.879,33c-0.443-2.351-0.864-4.785-1.266-7.303c-0.401-2.517-0.782-5.021-1.142-7.51
		c-0.359-2.49-0.678-4.917-0.954-7.283c-0.276-2.365-0.512-4.584-0.705-6.659h6.93c0.082,1.576,0.187,3.271,0.312,5.083
		c0.123,1.812,0.269,3.637,0.435,5.477c0.166,1.84,0.339,3.666,0.52,5.477c0.18,1.812,0.365,3.507,0.56,5.083
		c0.857-1.438,1.777-3.015,2.759-4.729c0.982-1.715,1.978-3.5,2.988-5.353c1.009-1.854,2.005-3.721,2.987-5.602
		c0.981-1.881,1.889-3.693,2.718-5.436h6.888c-1.052,1.991-2.199,4.136-3.444,6.432c-1.244,2.296-2.579,4.674-4.004,7.136
		s-2.932,4.973-4.522,7.531s-3.257,5.11-5,7.655H185.879z"/>
	<path fill="#FFFFFF" d="M203.098,33l6.888-28.754h18.797l-1.327,5.311h-12.324l-1.328,5.809h10.871l-1.286,5.229h-10.87
		l-1.66,7.054h13.278L222.807,33H203.098z"/>
	<path fill="#FFFFFF" d="M239.404,3.914c1.853,0,3.471,0.222,4.854,0.664c1.384,0.443,2.532,1.037,3.444,1.785
		c0.912,0.746,1.59,1.625,2.033,2.635c0.441,1.009,0.664,2.068,0.664,3.174c0,0.913-0.104,1.812-0.312,2.697
		c-0.208,0.886-0.595,1.729-1.162,2.531c-0.567,0.802-1.327,1.542-2.282,2.219c-0.954,0.679-2.178,1.252-3.672,1.723
		c0.773,1.438,1.569,3.182,2.386,5.228c0.816,2.048,1.584,4.191,2.304,6.432h-6.93c-0.637-1.908-1.28-3.797-1.93-5.664
		c-0.65-1.867-1.377-3.479-2.178-4.833h-3.237L230.857,33h-6.433l6.764-28.339c1.494-0.276,2.946-0.47,4.356-0.581
		C236.956,3.969,238.242,3.914,239.404,3.914z M239.197,9.39c-0.472,0-0.955,0.015-1.453,0.042
		c-0.497,0.028-0.912,0.055-1.244,0.083l-1.867,7.884h2.199c1.328,0,2.447-0.125,3.36-0.374c0.913-0.249,1.646-0.581,2.199-0.996
		s0.947-0.892,1.184-1.432c0.233-0.54,0.353-1.085,0.353-1.638c0-0.47-0.07-0.92-0.208-1.349c-0.139-0.429-0.389-0.81-0.747-1.141
		c-0.36-0.333-0.844-0.595-1.453-0.789C240.912,9.487,240.137,9.39,239.197,9.39z"/>
	<path fill="#FFFFFF" d="M258.449,27.605c0.636,0,1.272-0.048,1.908-0.146c0.637-0.097,1.204-0.269,1.701-0.519
		c0.498-0.249,0.906-0.602,1.225-1.058c0.317-0.456,0.478-1.044,0.478-1.764c0-0.554-0.153-1.029-0.458-1.432
		c-0.305-0.4-0.69-0.768-1.16-1.099c-0.472-0.333-0.996-0.637-1.577-0.914c-0.581-0.276-1.162-0.581-1.743-0.912
		c-0.747-0.442-1.452-0.913-2.116-1.411c-0.664-0.498-1.231-1.059-1.701-1.681c-0.47-0.623-0.844-1.313-1.12-2.075
		c-0.277-0.76-0.415-1.639-0.415-2.635c0-1.271,0.242-2.455,0.727-3.547c0.483-1.093,1.203-2.04,2.157-2.843
		c0.954-0.801,2.15-1.431,3.589-1.887C261.382,3.229,263.068,3,265.006,3c0.885,0,1.742,0.076,2.571,0.229
		c0.83,0.152,1.604,0.339,2.324,0.56c0.719,0.221,1.376,0.478,1.971,0.768s1.1,0.574,1.515,0.851l-2.697,4.772
		c-0.691-0.525-1.535-0.968-2.531-1.328c-0.996-0.359-2.074-0.539-3.236-0.539c-0.637,0-1.244,0.055-1.825,0.166
		c-0.581,0.111-1.093,0.298-1.535,0.561c-0.443,0.263-0.796,0.602-1.059,1.016c-0.263,0.415-0.394,0.927-0.394,1.535
		c0,0.554,0.104,1.017,0.311,1.391c0.208,0.373,0.478,0.699,0.809,0.975c0.333,0.276,0.72,0.526,1.162,0.747
		c0.442,0.222,0.912,0.458,1.411,0.706c0.856,0.442,1.687,0.913,2.49,1.411c0.801,0.497,1.507,1.072,2.115,1.721
		c0.608,0.65,1.093,1.391,1.452,2.221s0.54,1.812,0.54,2.945c0,1.576-0.291,2.946-0.872,4.108c-0.58,1.161-1.397,2.13-2.447,2.904
		c-1.052,0.775-2.303,1.349-3.756,1.722C261.872,32.812,260.261,33,258.49,33c-1.161,0-2.247-0.097-3.257-0.291
		c-1.01-0.193-1.923-0.421-2.738-0.685c-0.816-0.263-1.522-0.546-2.116-0.851c-0.596-0.304-1.073-0.581-1.432-0.83l2.738-4.938
		c0.332,0.223,0.732,0.456,1.203,0.705c0.471,0.25,1.003,0.484,1.598,0.706s1.225,0.408,1.889,0.56
		C257.038,27.529,257.729,27.605,258.449,27.605z"/>
</g>
</svg>
