<?xml version="1.0" encoding="utf-8"?>
<!-- Generator: Adobe Illustrator 16.0.0, SVG Export Plug-In . SVG Version: 6.00 Build 0)  -->
<!DOCTYPE svg PUBLIC "-//W3C//DTD SVG 1.1//EN" "http://www.w3.org/Graphics/SVG/1.1/DTD/svg11.dtd">
<svg version="1.1" id="Laag_1" xmlns="http://www.w3.org/2000/svg" xmlns:xlink="http://www.w3.org/1999/xlink" x="0px" y="0px"
	 width="25px" height="25px" viewBox="0 0 25 25" enable-background="new 0 0 25 25" xml:space="preserve">
<path fill="#FFFFFF" d="M16.667,2H8.333C3.73,2,0,5.897,0,10.5c0,3.923,2.712,7.323,6.361,8.246L5.5,23.613L11.088,19h5.579
	C21.27,19,25,15.104,25,10.5C25,5.897,21.27,2,16.667,2z M12.932,16.152c-0.246,0.233-0.55,0.353-0.912,0.353
	c-0.352,0-0.654-0.118-0.904-0.353c-0.25-0.235-0.376-0.538-0.376-0.912c0-0.373,0.125-0.68,0.376-0.92
	c0.25-0.239,0.552-0.359,0.904-0.359c0.362,0,0.667,0.12,0.912,0.359c0.245,0.24,0.367,0.547,0.367,0.92
	C13.299,15.614,13.177,15.918,12.932,16.152z M15.309,8.665c-0.135,0.288-0.303,0.555-0.506,0.8
	c-0.201,0.246-0.421,0.478-0.654,0.696c-0.235,0.219-0.455,0.443-0.656,0.672c-0.202,0.229-0.264,0.472-0.396,0.728
	C12.96,11.817,13,12.105,13,12.425c0,0.054,0,0.115,0,0.184S13.115,13,13.125,13H11.14c-0.021,0-0.038-0.317-0.048-0.439
	c-0.011-0.123-0.016-0.285-0.016-0.392c0-0.352,0.059-0.69,0.176-0.968c0.117-0.277,0.267-0.545,0.448-0.78
	c0.182-0.234,0.376-0.459,0.584-0.662c0.208-0.203,0.403-0.408,0.584-0.611c0.182-0.203,0.33-0.412,0.448-0.625
	c0.117-0.213,0.176-0.449,0.176-0.705c0-0.352-0.12-0.643-0.36-0.873c-0.239-0.229-0.6-0.344-1.08-0.344
	c-0.374,0-0.73,0.045-1.072,0.136c-0.342,0.091-0.699,0.238-1.072,0.439L9.363,5.689c0.395-0.224,0.845-0.403,1.352-0.536
	c0.506-0.133,1.026-0.2,1.56-0.2c0.64,0,1.168,0.088,1.584,0.264c0.416,0.176,0.746,0.397,0.992,0.664
	c0.244,0.267,0.416,0.56,0.512,0.88c0.096,0.32,0.145,0.629,0.145,0.928C15.508,8.052,15.439,8.377,15.309,8.665z"/>
</svg>
