<?xml version="1.0" encoding="utf-8"?>
<!-- Generator: Adobe Illustrator 16.0.0, SVG Export Plug-In . SVG Version: 6.00 Build 0)  -->
<!DOCTYPE svg PUBLIC "-//W3C//DTD SVG 1.1//EN" "http://www.w3.org/Graphics/SVG/1.1/DTD/svg11.dtd">
<svg version="1.1" id="Laag_1" xmlns="http://www.w3.org/2000/svg" xmlns:xlink="http://www.w3.org/1999/xlink" x="0px" y="0px"
	 width="958px" height="173px" viewBox="0 0 958 173" enable-background="new 0 0 958 173" xml:space="preserve">
<g>
	<g>
		<path fill-rule="evenodd" clip-rule="evenodd" fill="#808080" d="M81.662,79.325c3.623,0.078,22.734,0.002,26.346,0.246
			c5.106,0.344,9.49,4.906,9.896,10.059c0.086,1.094,0.082,2.195,0.082,3.291c-0.009,16.422,0.01,32.844-0.065,49.266
			c-0.016,3.191,1.253,5.416,4.084,6.736c2.892,1.348,5.636,0.793,8.036-1.133c2.398-1.924,3.146-4.467,2.529-7.541
			c-1.245-6.215-2.41-12.447-3.479-18.695c-1.092-6.389-2.059-12.799-3.003-19.209c-0.186-1.26-0.042-2.572-0.004-3.861
			c0.245-8.301,0.506-16.604,0.758-24.904c0.014-0.469,0.002-0.939,0.002-1.557c-0.724-0.035-1.327-0.084-1.932-0.096
			c-6.37-0.109-10.507-4.309-10.454-10.693c0.037-4.486,0.204-8.973,0.202-13.461c-0.001-0.756-0.388-1.664-0.895-2.24
			c-2.354-2.682-4.807-5.275-7.236-7.891c-0.93-1-0.896-1.74,0.22-2.705c3.118-2.699,3.088-2.771,5.934,0.047
			c5.227,5.174,10.406,10.396,15.652,15.549c3.374,3.312,4.746,7.342,4.734,11.988c-0.03,12.316-0.138,24.635,0.06,36.947
			c0.069,4.311,0.78,8.635,1.473,12.908c1.524,9.408,2.826,18.883,4.986,28.148c1.559,6.68-3.112,12.666-8.813,14.924
			c-6.29,2.494-12.663,0.826-16.974-4.396c-2.064-2.502-2.795-5.453-2.792-8.654c0.018-16.375,0.011-32.746,0.005-49.121
			c-0.001-0.953,0.017-1.918-0.114-2.857c-0.31-2.238-1.919-3.674-4.182-3.711c-3.008-0.047-21.495,0.049-24.5-0.049L81.662,79.325z
			 M125.975,67.009c0-2.135,0.021-4.264-0.004-6.395c-0.045-3.805-1.568-5.26-5.462-5.238c-0.052,0.121-0.153,0.252-0.154,0.379
			c-0.016,1.955-0.037,3.912-0.021,5.865C120.36,64.688,122.592,66.886,125.975,67.009z"/>
		<path fill-rule="evenodd" clip-rule="evenodd" fill="#009245" d="M98.729,27.411c1.915,0,3.482-1.699,3.482-3.777v-4.057
			c0-2.076-1.699-3.775-3.775-3.775H75.03c-2.076,0-3.775-1.699-3.775-3.777V10.29c0-2.076-1.698-3.775-3.775-3.775H41.753
			c-2.077,0-3.775,1.699-3.775,3.775v1.734c0,2.078-1.699,3.777-3.775,3.777H10.797c-2.076,0-3.775,1.699-3.775,3.775v4.057
			c0,2.078,1.699,3.777,3.775,3.777h0.188c2.076,0,3.775,1.699,3.775,3.775v120.914c0,2.076-1.699,3.775-3.775,3.775h-0.188
			c-2.076,0-3.775,1.699-3.775,3.777v4.057c0,2.076,1.699,3.775,3.775,3.775h87.639c2.076,0,3.775-1.699,3.775-3.775v-4.057
			c0-2.078-1.567-3.777-3.482-3.777c-1.916,0-3.483-1.699-3.483-3.775V31.187C95.245,29.11,96.812,27.411,98.729,27.411z
			 M47.693,117.239c-0.973,1.834-1.389,1.68-0.925-0.344l5.756-25.092c0.464-2.025-0.84-3.457-2.898-3.182l-5.207,0.693
			c-2.059,0.273-3.073-1.062-2.255-2.971l15.337-35.777c0.817-1.908,1.366-1.775,1.217,0.297l-1.656,23.07
			c-0.149,2.072,1.426,3.672,3.499,3.559l4.671-0.258c2.073-0.113,2.975,1.293,2.002,3.129L47.693,117.239z"/>
	</g>
	<g>
		<path fill="#009245" d="M204.072,114.229c1.586,0,3.016-0.061,4.289-0.178c1.268-0.119,2.422-0.256,3.456-0.418l6.909-28.717
			h18.59l-10.008,41.348c-2.225,0.875-5.443,1.729-9.654,2.562c-4.21,0.834-9.572,1.25-16.087,1.25
			c-5.561,0-10.466-0.814-14.716-2.441s-7.805-3.951-10.665-6.971c-2.86-3.018-5.007-6.674-6.436-10.965
			c-1.429-4.289-2.146-9.135-2.146-14.535c0-6.199,1.091-12.352,3.276-18.471c2.186-6.117,5.423-11.58,9.713-16.385
			c4.29-4.807,9.612-8.719,15.969-11.738c6.354-3.018,13.661-4.529,21.927-4.529c3.812,0,7.843,0.557,12.096,1.67
			c4.247,1.111,8.08,2.781,11.497,5.004l-6.673,14.418c-2.781-1.746-5.739-3.057-8.877-3.932c-3.139-0.872-6.217-1.31-9.234-1.31
			c-4.849,0-9.158,0.912-12.93,2.739c-3.775,1.829-6.973,4.311-9.594,7.447c-2.62,3.141-4.607,6.775-5.957,10.904
			c-1.354,4.131-2.025,8.502-2.025,13.107c0,6.992,1.447,12.096,4.348,15.312C194.04,112.622,198.351,114.229,204.072,114.229z"/>
		<path fill="#009245" d="M277.355,46.544c5.32,0,9.968,0.639,13.941,1.907c3.973,1.272,7.271,2.979,9.891,5.124
			c2.621,2.145,4.566,4.667,5.84,7.566c1.269,2.9,1.906,5.939,1.906,9.117c0,2.621-0.298,5.204-0.895,7.746
			c-0.596,2.543-1.708,4.964-3.337,7.268c-1.63,2.305-3.812,4.43-6.554,6.375c-2.74,1.947-6.256,3.596-10.546,4.945
			c2.223,4.131,4.509,9.139,6.853,15.016c2.344,5.881,4.547,12.033,6.614,18.469h-19.901c-1.828-5.48-3.676-10.904-5.539-16.266
			c-1.869-5.361-3.955-9.99-6.257-13.881h-9.296l-7.269,30.146h-18.47L253.76,48.69c4.291-0.793,8.462-1.35,12.512-1.668
			C270.324,46.705,274.018,46.544,277.355,46.544z M276.76,62.273c-1.353,0-2.742,0.042-4.172,0.121
			c-1.428,0.079-2.62,0.158-3.574,0.237l-5.362,22.641h6.316c3.812,0,7.028-0.357,9.651-1.072c2.621-0.715,4.725-1.669,6.314-2.861
			c1.59-1.191,2.721-2.56,3.398-4.109c0.672-1.55,1.012-3.117,1.012-4.706c0-1.351-0.199-2.642-0.596-3.873
			c-0.397-1.231-1.114-2.325-2.146-3.276c-1.033-0.955-2.423-1.709-4.171-2.266C281.684,62.553,279.459,62.273,276.76,62.273z"/>
		<path fill="#009245" d="M302.973,130.077l19.781-82.578h53.982l-3.812,15.252H337.53l-3.812,16.682h31.22l-3.694,15.016h-31.22
			l-4.767,20.258h38.133l-3.814,15.371H302.973z"/>
		<path fill="#009245" d="M364.224,130.077l19.781-82.578h53.981l-3.814,15.252h-35.391l-3.814,16.682h31.223l-3.693,15.016h-31.224
			l-4.766,20.258h38.132l-3.812,15.371H364.224z"/>
		<path fill="#009245" d="M481.241,130.077c-3.337-9.373-7.052-18.746-11.141-28.121c-4.094-9.373-8.521-18.233-13.288-26.574
			l-13.107,54.695h-18.233l19.781-82.578h14.181c1.828,2.781,3.793,6.059,5.9,9.831c2.104,3.772,4.269,7.846,6.493,12.214
			c2.223,4.369,4.447,8.919,6.673,13.644c2.223,4.728,4.329,9.396,6.316,14.001l11.798-49.689h18.471l-19.902,82.578H481.241z"/>
		<path fill="#009245" d="M585.271,78.598c0,8.025-1.311,15.214-3.934,21.567c-2.62,6.359-6.374,11.74-11.26,16.148
			s-10.825,7.807-17.814,10.189c-6.991,2.383-14.896,3.574-23.714,3.574c-3.338,0-7.191-0.199-11.56-0.596
			c-4.369-0.4-8.579-1.033-12.631-1.908l19.185-79.719c4.528-0.875,8.879-1.489,13.049-1.848c4.172-0.357,7.926-0.535,11.261-0.535
			c5.879,0,11.142,0.793,15.789,2.383s8.581,3.854,11.798,6.792c3.217,2.939,5.66,6.436,7.329,10.487
			C584.438,69.184,585.271,73.673,585.271,78.598z M526.047,114.11c0.872,0.078,1.767,0.139,2.681,0.178
			c0.913,0.039,2.163,0.059,3.753,0.059c5.164,0,9.83-0.793,14.001-2.383c4.171-1.588,7.706-3.873,10.606-6.852
			c2.9-2.98,5.144-6.631,6.732-10.963c1.588-4.328,2.384-9.195,2.384-14.598c0-2.781-0.358-5.304-1.072-7.566
			c-0.715-2.264-1.889-4.21-3.515-5.84c-1.629-1.626-3.736-2.879-6.317-3.754c-2.581-0.872-5.699-1.31-9.354-1.31
			c-2.384,0-4.809,0.118-7.269,0.355L526.047,114.11z"/>
		<path fill="#009245" d="M623.4,46.544c5.323,0,9.971,0.639,13.943,1.907c3.972,1.272,7.269,2.979,9.89,5.124
			c2.623,2.145,4.569,4.667,5.84,7.566c1.271,2.9,1.905,5.939,1.905,9.117c0,2.621-0.297,5.204-0.894,7.746
			c-0.596,2.543-1.708,4.964-3.335,7.268c-1.629,2.305-3.814,4.43-6.554,6.375c-2.742,1.947-6.256,3.596-10.546,4.945
			c2.223,4.131,4.506,9.139,6.852,15.016c2.342,5.881,4.546,12.033,6.612,18.469h-19.899c-1.829-5.48-3.675-10.904-5.541-16.266
			c-1.867-5.361-3.952-9.99-6.257-13.881h-9.295l-7.269,30.146h-18.471l19.425-81.387c4.289-0.793,8.461-1.35,12.513-1.668
			C616.372,46.705,620.065,46.544,623.4,46.544z M622.805,62.273c-1.35,0-2.739,0.042-4.171,0.121
			c-1.429,0.079-2.62,0.158-3.574,0.237l-5.362,22.641h6.316c3.812,0,7.031-0.357,9.651-1.072c2.623-0.715,4.728-1.669,6.316-2.861
			c1.588-1.191,2.722-2.56,3.396-4.109c0.676-1.55,1.014-3.117,1.014-4.706c0-1.351-0.199-2.642-0.597-3.873
			s-1.112-2.325-2.144-3.276c-1.033-0.955-2.425-1.709-4.171-2.266C627.729,62.553,625.504,62.273,622.805,62.273z"/>
		<path fill="#009245" d="M668.801,47.499h18.59l-19.899,82.578h-18.47L668.801,47.499z"/>
		<path fill="#009245" d="M699.666,130.077c-1.273-6.75-2.484-13.742-3.637-20.973c-1.151-7.229-2.245-14.418-3.276-21.566
			c-1.034-7.15-1.948-14.121-2.739-20.915c-0.797-6.791-1.471-13.166-2.026-19.124h19.901c0.236,4.527,0.535,9.394,0.894,14.598
			c0.356,5.204,0.772,10.445,1.25,15.729c0.477,5.283,0.973,10.527,1.489,15.729c0.517,5.205,1.052,10.07,1.607,14.598
			c2.463-4.129,5.104-8.658,7.926-13.582c2.818-4.926,5.679-10.051,8.581-15.373c2.897-5.323,5.758-10.686,8.579-16.088
			c2.818-5.401,5.423-10.605,7.806-15.609h19.781c-3.021,5.719-6.316,11.877-9.892,18.471s-7.408,13.424-11.5,20.494
			s-8.42,14.281-12.987,21.629c-4.57,7.348-9.356,14.676-14.36,21.984H699.666z"/>
		<path fill="#009245" d="M749.116,130.077l19.78-82.578h53.982l-3.812,15.252h-35.394l-3.812,16.682h31.221l-3.693,15.016h-31.221
			l-4.767,20.258h38.132l-3.814,15.371H749.116z"/>
		<path fill="#009245" d="M853.385,46.544c5.32,0,9.969,0.639,13.941,1.907c3.973,1.272,7.271,2.979,9.892,5.124
			c2.62,2.145,4.565,4.667,5.839,7.566c1.27,2.9,1.906,5.939,1.906,9.117c0,2.621-0.298,5.204-0.894,7.746
			c-0.596,2.543-1.708,4.964-3.338,7.268c-1.629,2.305-3.812,4.43-6.554,6.375c-2.739,1.947-6.257,3.596-10.546,4.945
			c2.224,4.131,4.509,9.139,6.853,15.016c2.344,5.881,4.548,12.033,6.615,18.469h-19.902c-1.827-5.48-3.675-10.904-5.539-16.266
			c-1.869-5.361-3.954-9.99-6.256-13.881h-9.297l-7.268,30.146h-18.471l19.422-81.387c4.292-0.793,8.463-1.35,12.512-1.668
			C846.354,46.705,850.047,46.544,853.385,46.544z M852.789,62.273c-1.352,0-2.742,0.042-4.171,0.121s-2.621,0.158-3.575,0.237
			l-5.362,22.641h6.316c3.812,0,7.029-0.357,9.652-1.072c2.621-0.715,4.725-1.669,6.314-2.861c1.589-1.191,2.72-2.56,3.397-4.109
			c0.673-1.55,1.013-3.117,1.013-4.706c0-1.351-0.2-2.642-0.596-3.873c-0.398-1.231-1.115-2.325-2.146-3.276
			c-1.033-0.955-2.423-1.709-4.17-2.266C857.714,62.553,855.489,62.273,852.789,62.273z"/>
		<path fill="#009245" d="M908.079,114.587c1.827,0,3.654-0.141,5.481-0.42c1.826-0.277,3.456-0.771,4.885-1.488
			c1.431-0.715,2.603-1.727,3.518-3.039c0.912-1.311,1.37-2.996,1.37-5.064c0-1.588-0.438-2.957-1.312-4.111
			c-0.875-1.15-1.985-2.205-3.335-3.156c-1.353-0.955-2.861-1.826-4.529-2.623c-1.669-0.793-3.336-1.668-5.004-2.621
			c-2.146-1.27-4.171-2.623-6.077-4.051c-1.908-1.43-3.537-3.04-4.888-4.827c-1.35-1.788-2.423-3.771-3.217-5.958
			c-0.796-2.184-1.191-4.707-1.191-7.566c0-3.652,0.693-7.051,2.085-10.188c1.39-3.137,3.457-5.857,6.196-8.165
			c2.741-2.302,6.178-4.11,10.309-5.42c4.131-1.312,8.977-1.967,14.539-1.967c2.541,0,5.004,0.219,7.387,0.655
			c2.384,0.438,4.606,0.974,6.673,1.609c2.064,0.635,3.952,1.371,5.66,2.204s3.158,1.649,4.351,2.443l-7.746,13.704
			c-1.987-1.508-4.408-2.781-7.269-3.814c-2.86-1.031-5.958-1.549-9.296-1.549c-1.827,0-3.575,0.159-5.243,0.476
			c-1.667,0.319-3.138,0.856-4.408,1.61c-1.271,0.754-2.286,1.728-3.039,2.918c-0.755,1.192-1.132,2.663-1.132,4.409
			c0,1.592,0.298,2.921,0.894,3.993c0.597,1.071,1.371,2.007,2.323,2.801c0.954,0.793,2.066,1.51,3.337,2.143
			c1.271,0.639,2.621,1.312,4.052,2.027c2.461,1.271,4.844,2.621,7.15,4.053c2.302,1.429,4.329,3.078,6.077,4.943
			c1.745,1.869,3.137,3.994,4.171,6.377c1.03,2.383,1.55,5.203,1.55,8.459c0,4.527-0.835,8.461-2.505,11.799
			c-1.666,3.334-4.013,6.115-7.028,8.342c-3.021,2.225-6.614,3.871-10.785,4.941c-4.171,1.074-8.8,1.611-13.884,1.611
			c-3.334,0-6.453-0.279-9.354-0.834c-2.9-0.557-5.523-1.211-7.864-1.967c-2.344-0.754-4.371-1.568-6.077-2.441
			c-1.711-0.873-3.081-1.67-4.112-2.385l7.864-14.18c0.955,0.637,2.104,1.309,3.457,2.023c1.35,0.717,2.879,1.393,4.587,2.027
			c1.708,0.637,3.517,1.174,5.423,1.609C904.027,114.368,906.013,114.587,908.079,114.587z"/>
	</g>
</g>
</svg>
