<?xml version="1.0" encoding="utf-8"?>
<!-- Generator: Adobe Illustrator 16.0.0, SVG Export Plug-In . SVG Version: 6.00 Build 0)  -->
<!DOCTYPE svg PUBLIC "-//W3C//DTD SVG 1.1//EN" "http://www.w3.org/Graphics/SVG/1.1/DTD/svg11.dtd">
<svg version="1.1" id="Laag_1" xmlns="http://www.w3.org/2000/svg" xmlns:xlink="http://www.w3.org/1999/xlink" x="0px" y="0px"
	 width="125px" height="125px" viewBox="0 0 125 125" enable-background="new 0 0 125 125" xml:space="preserve">
<path fill="#808080" d="M116,94.699V78h6c1.32,0,2-1.181,2-2.5V52.699c0-1.319-0.68-1.699-2-1.699h-6V32.3c0-3.3-2.699-5.3-6-5.3
	H5.601C2.301,27,0,29,0,32.3v62.399C0,98,2.301,101,5.601,101H110C113.301,101,116,98,116,94.699z M7.8,99
	C4.611,99,2,95.564,2,92.498V34.502C2,31.435,4.611,29,7.8,29h100.904c3.19,0,5.296,2.435,5.296,5.502V51.5v25.199v15.799
	c0,3.066-2.105,6.502-5.296,6.502H7.8z"/>
<g>
	<path fill="#39B54A" d="M81,92.243C81,94.87,78.87,97,76.242,97H8.757C6.13,97,4,94.87,4,92.243V34.757C4,32.13,6.13,30,8.757,30
		h67.485C78.87,30,81,32.13,81,34.757V92.243z"/>
</g>
</svg>
