<?xml version="1.0" encoding="utf-8"?>
<!-- Generator: Adobe Illustrator 16.0.0, SVG Export Plug-In . SVG Version: 6.00 Build 0)  -->
<!DOCTYPE svg PUBLIC "-//W3C//DTD SVG 1.1//EN" "http://www.w3.org/Graphics/SVG/1.1/DTD/svg11.dtd">
<svg version="1.1" id="Laag_1" xmlns="http://www.w3.org/2000/svg" xmlns:xlink="http://www.w3.org/1999/xlink" x="0px" y="0px"
	 width="125px" height="125px" viewBox="0 0 125 125" enable-background="new 0 0 125 125" xml:space="preserve">
<rect y="-31" fill="#009245" width="125" height="11"/>
<rect x="-25" fill="#009245" width="5" height="125"/>
<g>
	<g>
		<path fill-rule="evenodd" clip-rule="evenodd" fill="#808080" d="M102.846,25.648c-2.26-1.957-2.238-2.01-4.301,0.034
			c-3.789,3.75-4.074,3.813-7.877,7.549c-2.447,2.4-3.441,5.322-3.432,8.69c0.006,2.29,0.014,4.58,0.023,6.87
			c0,0-0.193,13.183-0.371,19.2c-0.027,0.935-0.131,1.886,0.004,2.799c0.684,4.647,1.385,9.294,2.176,13.925
			c0.775,4.529,1.619,9.047,2.521,13.553c0.447,2.229-0.094,4.072-1.834,5.467c-1.74,1.396-3.729,1.798-5.824,0.82
			c-2.053-0.956-2.973-2.568-2.961-4.883c0.055-11.904,0.041-23.809,0.047-35.713c0-0.795,0.004-1.593-0.059-2.387
			c-0.295-3.734-3.473-7.042-7.173-7.291c-2.618-0.177-16.473-0.122-19.1-0.179l0.403,5.316c2.179,0.071,15.581,0.001,17.761,0.035
			c1.64,0.027,2.808,1.067,3.03,2.69c0.096,0.682,0.082,1.381,0.082,2.072c0.006,11.87,0.01,23.737-0.002,35.608
			c-0.002,2.32,0.527,4.46,2.023,6.273c3.125,3.786,7.744,4.995,12.305,3.188c4.133-1.638,7.52-5.977,6.389-10.819
			c-1.564-6.717-2.51-13.585-3.615-20.404c-0.502-3.099-1.016-6.233-1.066-9.357c-0.105-6.637-0.09-13.275-0.066-19.914h0.135
			c0.385-0.022,0.74-0.045,1.084-0.052c4.619-0.079,7.617-3.123,7.578-7.752c-0.025-3.252-0.148-6.505-0.146-9.758
			c0.002-0.548,0.281-1.206,0.648-1.624c1.707-1.944,0.016-0.102,1.775-1.997C103.68,26.884,103.654,26.348,102.846,25.648z"/>
		<path fill-rule="evenodd" clip-rule="evenodd" fill="#808080" d="M103.867,22.633c0.426-0.403-0.047-0.739-0.047-0.739
			s-0.332-0.512-0.758-0.108l-2.059,1.95c0.322,0.089,0.66,0.294,1.059,0.606L103.867,22.633z"/>
		<path fill-rule="evenodd" clip-rule="evenodd" fill="#808080" d="M105.641,23.715c0,0-0.332-0.513-0.758-0.109l-1.734,1.644
			l0.025,0.021c0.244,0.211,0.547,0.513,0.705,0.896l1.809-1.714C106.113,24.05,105.641,23.715,105.641,23.715z"/>
	</g>
	<path fill-rule="evenodd" clip-rule="evenodd" fill="#009245" d="M59.051,95.834V18.5c0-5.522-4.477-10-10-10H35.385
		c-5.523,0-10,4.478-10,10v77.334h-6.25V116.5h46.167V95.834H59.051z M54.718,29.833c0,5.523-4.477,10-10,10h-5
		c-5.523,0-10-4.477-10-10v-5c0-5.522,4.477-10,10-10h5c5.523,0,10,4.478,10,10V29.833z"/>
</g>
</svg>
