<?xml version="1.0" encoding="utf-8"?>
<!-- Generator: Adobe Illustrator 16.0.0, SVG Export Plug-In . SVG Version: 6.00 Build 0)  -->
<!DOCTYPE svg PUBLIC "-//W3C//DTD SVG 1.1//EN" "http://www.w3.org/Graphics/SVG/1.1/DTD/svg11.dtd">
<svg version="1.1" id="Laag_1" xmlns="http://www.w3.org/2000/svg" xmlns:xlink="http://www.w3.org/1999/xlink" x="0px" y="0px"
	 width="125px" height="125px" viewBox="0 0 125 125" enable-background="new 0 0 125 125" xml:space="preserve">
<rect y="-31" fill="#009245" width="125" height="11"/>
<rect x="-25" fill="#009245" width="5" height="125"/>
<path fill="#0099FF" d="M122,93c0,5.521-4.479,10-10,10H13c-5.523,0-10-4.479-10-10V33c0-5.523,4.477-10,10-10h99
	c5.521,0,10,4.477,10,10V93z"/>
<rect x="3" y="70.166" fill="#3EAE2C" width="119" height="16.667"/>
<path fill="#FFFFFF" d="M3,84.166V93c0,5.521,4.477,10,10,10h99c5.521,0,10-4.479,10-10v-8.834H3z"/>
<text transform="matrix(1 0 0 1 9.667 96.25)"><tspan x="0" y="0" fill="#3EAE2C" font-family="'Arial-Black'" font-size="10">Green</tspan><tspan x="32.778" y="0" fill="#0066FF" font-family="'Arial-ItalicMT'" font-size="10">Flux</tspan></text>
</svg>
