<?xml version="1.0" encoding="utf-8"?>
<!-- Generator: Adobe Illustrator 16.0.0, SVG Export Plug-In . SVG Version: 6.00 Build 0)  -->
<!DOCTYPE svg PUBLIC "-//W3C//DTD SVG 1.1//EN" "http://www.w3.org/Graphics/SVG/1.1/DTD/svg11.dtd">
<svg version="1.1" id="Laag_1" xmlns="http://www.w3.org/2000/svg" xmlns:xlink="http://www.w3.org/1999/xlink" x="0px" y="0px"
	 width="125px" height="125px" viewBox="0 0 125 125" enable-background="new 0 0 125 125" xml:space="preserve">
<rect y="-31" fill-rule="evenodd" clip-rule="evenodd" fill="#009245" width="125" height="11"/>
<rect x="-25" fill-rule="evenodd" clip-rule="evenodd" fill="#009245" width="5" height="125"/>
<g>
	<path fill-rule="evenodd" clip-rule="evenodd" fill="#009245" d="M122,93c0,5.522-4.478,10-10,10H13c-5.523,0-10-4.478-10-10V33
		c0-5.523,4.477-10,10-10h99c5.522,0,10,4.477,10,10V93z"/>
	<rect x="3" y="37" fill-rule="evenodd" clip-rule="evenodd" fill="#313131" width="119" height="23"/>
	<line fill="none" stroke="#313131" stroke-width="4" stroke-miterlimit="10" x1="7" y1="72" x2="59" y2="72"/>
	<line fill="none" stroke="#313131" stroke-width="4" stroke-miterlimit="10" x1="7" y1="79" x2="35" y2="79"/>
	<line fill="none" stroke="#313131" stroke-width="4" stroke-miterlimit="10" x1="7" y1="86" x2="55" y2="86"/>
	<line fill="none" stroke="#313131" stroke-width="4" stroke-miterlimit="10" x1="7" y1="93" x2="49" y2="93"/>
</g>
</svg>
