<?xml version="1.0" encoding="utf-8"?>
<!-- Generator: Adobe Illustrator 16.0.0, SVG Export Plug-In . SVG Version: 6.00 Build 0)  -->
<!DOCTYPE svg PUBLIC "-//W3C//DTD SVG 1.1//EN" "http://www.w3.org/Graphics/SVG/1.1/DTD/svg11.dtd">
<svg version="1.1" id="Laag_1" xmlns="http://www.w3.org/2000/svg" xmlns:xlink="http://www.w3.org/1999/xlink" x="0px" y="0px"
	 width="125px" height="125px" viewBox="0 0 125 125" enable-background="new 0 0 125 125" xml:space="preserve">
<rect y="-31" fill-rule="evenodd" clip-rule="evenodd" fill="#009245" width="125" height="11"/>
<rect x="-25" fill-rule="evenodd" clip-rule="evenodd" fill="#009245" width="5" height="125"/>
<g>
	<rect x="2" y="89" fill-rule="evenodd" clip-rule="evenodd" fill="#313131" width="121" height="34"/>
	<rect x="2" y="53" fill-rule="evenodd" clip-rule="evenodd" fill="#313131" width="11" height="49"/>
	<rect x="13" y="41" fill-rule="evenodd" clip-rule="evenodd" fill="#313131" width="12" height="61"/>
	<rect x="26" y="66" fill-rule="evenodd" clip-rule="evenodd" fill="#313131" width="10" height="40"/>
	<rect x="72" y="45" fill-rule="evenodd" clip-rule="evenodd" fill="#313131" width="11" height="58"/>
	<polygon fill-rule="evenodd" clip-rule="evenodd" fill="#313131" points="95,103 84,103 84,65 89.5,61 95,65 	"/>
	<polygon fill-rule="evenodd" clip-rule="evenodd" fill="#313131" points="71,87 65.5,82 60,87 60,105 71,105 	"/>
	<polygon fill-rule="evenodd" clip-rule="evenodd" fill="#313131" points="112,84 106.5,79 101,84 101,102 112,102 	"/>
	<polygon fill-rule="evenodd" clip-rule="evenodd" fill="#313131" points="99,84 93.5,79 88,84 88,102 99,102 	"/>
	<polygon fill-rule="evenodd" clip-rule="evenodd" fill="#313131" points="123,65 118,61 113,65 113,96 123,96 	"/>
	<path fill-rule="evenodd" clip-rule="evenodd" fill="#313131" d="M49,31c-6.5,0,14,0,7,0s0,65,0,65h-7C49,96,55.5,31,49,31z"/>
	<path fill-rule="evenodd" clip-rule="evenodd" fill="#313131" d="M58.375,28c0,2-2.742,4.25-6.125,4.25S46.125,30,46.125,28H58.375
		z"/>
	<polygon fill-rule="evenodd" clip-rule="evenodd" fill="#313131" points="56,28 48,28 51,24 52,20 53,24 	"/>
</g>
</svg>
