<?xml version="1.0" encoding="utf-8"?>
<!-- Generator: Adobe Illustrator 16.0.0, SVG Export Plug-In . SVG Version: 6.00 Build 0)  -->
<!DOCTYPE svg PUBLIC "-//W3C//DTD SVG 1.1//EN" "http://www.w3.org/Graphics/SVG/1.1/DTD/svg11.dtd">
<svg version="1.1" id="Laag_1" xmlns="http://www.w3.org/2000/svg" xmlns:xlink="http://www.w3.org/1999/xlink" x="0px" y="0px"
	 width="125px" height="125px" viewBox="0 0 125 125" enable-background="new 0 0 125 125" xml:space="preserve">
<g>
	<path fill="#B3B3B3" d="M104.555,70.893c3.68-3.559,5.971-8.542,5.971-14.064c0-10.809-8.763-19.571-19.571-19.571
		s-19.57,8.763-19.57,19.571c0,5.517,2.351,10.498,6.022,14.056C69.926,75.471,65,83.728,65,93.152V125h51.968l0.04-31.854
		C117.008,83.729,112.027,75.479,104.555,70.893z"/>
	<path fill="#CCCCCC" d="M58.768,55.778c4.708-4.552,7.637-10.929,7.637-17.994c0-13.828-11.21-25.038-25.038-25.038
		c-13.828,0-25.038,11.21-25.038,25.038c0,7.059,2.925,13.431,7.625,17.982C14.381,61.633,8,72.198,8,84.256V125h66.648
		l0.051-40.753C74.699,72.199,68.329,61.646,58.768,55.778z"/>
</g>
</svg>
