<?xml version="1.0" encoding="utf-8"?>
<!-- Generator: Adobe Illustrator 16.0.0, SVG Export Plug-In . SVG Version: 6.00 Build 0)  -->
<!DOCTYPE svg PUBLIC "-//W3C//DTD SVG 1.1//EN" "http://www.w3.org/Graphics/SVG/1.1/DTD/svg11.dtd">
<svg version="1.1" id="Laag_1" xmlns="http://www.w3.org/2000/svg" xmlns:xlink="http://www.w3.org/1999/xlink" x="0px" y="0px"
	 width="125px" height="125px" viewBox="0 0 125 125" enable-background="new 0 0 125 125" xml:space="preserve">
<path fill-rule="evenodd" clip-rule="evenodd" fill="#006837" d="M115.311,6.167c-0.124-0.572-0.026-1.388-0.765-1.542
	c-0.589-0.123-0.908,0.558-1.307,0.924c-7.699,7.044-15.938,13.397-24.624,19.171C74.655,34,59.675,41.167,43.944,46.955
	c-12.837,4.724-23.342,12.761-30.793,24.408C9.105,77.687,6.877,84.613,7.728,92.2c0.841,7.521,3.549,10.336,3.549,10.336
	c3.955,4.111,8.506,8.183,10.112,9.048c1.607,0.865,6.278-1.672,10.38-5.637l9.286-8.974c4.103-3.965,2.794-7.035-2.907-6.822
	l-3.151,0.118c-5.701,0.213-6.432-2.126-1.624-5.196l42.358-27.055c4.809-3.071,5.446-2.278,1.418,1.762L62.568,74.401
	c-4.028,4.04-2.985,7.336,2.316,7.326c5.302-0.011,5.799,2.632,1.103,5.872l-30.528,21.07c-4.695,3.24-7.672,6.358-6.614,6.928
	c1.058,0.569,5.826,2.213,10.596,3.652c0,0,0,0,4.532,0.309c10.807,0.741,20.753-2.096,29.999-7.573
	c14.217-8.425,24.208-20.718,31.678-35.18c6.557-12.698,10.388-26.228,11.509-40.512C117.954,26.158,117.453,16.116,115.311,6.167z"
	/>
</svg>
