<?xml version="1.0" encoding="utf-8"?>
<!-- Generator: Adobe Illustrator 16.0.0, SVG Export Plug-In . SVG Version: 6.00 Build 0)  -->
<!DOCTYPE svg PUBLIC "-//W3C//DTD SVG 1.1//EN" "http://www.w3.org/Graphics/SVG/1.1/DTD/svg11.dtd">
<svg version="1.1" id="Laag_1" xmlns="http://www.w3.org/2000/svg" xmlns:xlink="http://www.w3.org/1999/xlink" x="0px" y="0px"
	 width="125px" height="125px" viewBox="0 0 125 125" enable-background="new 0 0 125 125" xml:space="preserve">
<g>
	<path fill="#313131" d="M103,87.5c-4.549,0-8.667,1.842-11.651,4.818L36.815,66.604C37.252,65.142,37.5,63.6,37.5,62l-0.125,0.5
		c0-1.583-0.24-3.107-0.662-4.557l54.636-25.762C94.333,35.159,98.451,37,103,37c9.112,0,16.5-7.387,16.5-16.5S112.112,4,103,4
		s-16.5,7.387-16.5,16.5c0,2.02,0.381,3.947,1.045,5.736L33.356,51.787C30.296,48.25,25.77,46,20.75,46
		c-9.028,0-16.597,7.254-16.737,16.25c0.14,8.997,7.709,16.25,16.737,16.25c5.009,0,9.562-2.24,12.657-5.764l54.138,25.528
		c-0.664,1.788-1.045,3.715-1.045,5.735c0,9.113,7.388,16.5,16.5,16.5s16.5-7.387,16.5-16.5S112.112,87.5,103,87.5z"/>
	<path fill="#313131" d="M4,62.5c0-0.084,0.012-0.166,0.013-0.25C4.012,62.166,4,62.084,4,62V62.5z"/>
</g>
</svg>
