<?xml version="1.0" encoding="utf-8"?>
<!-- Generator: Adobe Illustrator 16.0.0, SVG Export Plug-In . SVG Version: 6.00 Build 0)  -->
<!DOCTYPE svg PUBLIC "-//W3C//DTD SVG 1.1//EN" "http://www.w3.org/Graphics/SVG/1.1/DTD/svg11.dtd">
<svg version="1.1" id="Laag_1" xmlns="http://www.w3.org/2000/svg" xmlns:xlink="http://www.w3.org/1999/xlink" x="0px" y="0px"
	 width="125px" height="125px" viewBox="0 0 125 125" enable-background="new 0 0 125 125" xml:space="preserve">
<g>
	<path fill="#808080" d="M73.936,124H53.231c9.752-25.557,1.633-44.75-0.307-49.575c-1.94-4.824-21.649-25.285-21.649-25.285
		l26.726,21.198l6.623-33.591l4.68,39.786l24.919-24.089c0,0-16.937,23.143-17.925,24.799C68.53,90.268,63.932,94.792,73.936,124z"
		/>
	<path fill="#009245" d="M93.953,18.113C88.91,7.751,78.279,0.609,65.98,0.609c-12.162,0-22.691,6.984-27.802,17.16
		c-1.105-0.18-2.238-0.277-3.395-0.277c-11.607,0-21.018,9.41-21.018,21.018c0,11.607,9.41,21.018,21.018,21.018
		c4.346,0,8.384-1.319,11.736-3.58c5.327,4.282,12.094,6.846,19.46,6.846c4.657,0,9.073-1.026,13.039-2.861
		c3.087,1.602,6.589,2.513,10.307,2.513c12.376,0,22.407-10.032,22.407-22.407C111.733,29.25,104.108,20.245,93.953,18.113z"/>
</g>
</svg>
