<?xml version="1.0" encoding="utf-8"?>
<!-- Generator: Adobe Illustrator 16.0.0, SVG Export Plug-In . SVG Version: 6.00 Build 0)  -->
<!DOCTYPE svg PUBLIC "-//W3C//DTD SVG 1.1//EN" "http://www.w3.org/Graphics/SVG/1.1/DTD/svg11.dtd">
<svg version="1.1" id="Laag_1" xmlns="http://www.w3.org/2000/svg" xmlns:xlink="http://www.w3.org/1999/xlink" x="0px" y="0px"
	 width="125px" height="125px" viewBox="0 0 125 125" enable-background="new 0 0 125 125" xml:space="preserve">
<rect y="-31" fill="#009245" width="125" height="11"/>
<rect x="-25" fill="#009245" width="5" height="125"/>
<circle fill="#313131" cx="26.75" cy="81" r="10.5"/>
<circle fill="#313131" cx="93.75" cy="81" r="10.5"/>
<path fill="#009245" d="M107,49h-5v-1.844c0-7.512-6.5-13.656-14.75-13.656l-37.125,1C41.875,34.5,35,40.645,35,48.156v1.054
	C9,50.277,4.25,56.694,4.25,65.227C4.25,65.379,4.511,66,4.517,66H4v16h11.775c-0.008-1-0.025-0.581-0.025-0.75
	c0-6.064,4.935-11.125,11-11.125s11,5.122,11,11.188c0,0.17-0.018-0.312-0.025,0.688h45.05c-0.008-1-0.024-0.581-0.024-0.75
	c0-6.065,4.935-11.125,11-11.125s11,5.122,11,11.188c0,0.168-0.019-0.312-0.024,0.688H120V66h0.482c0.006,0,0.018-0.154,0.018-0.307
	C120.5,56.431,120.75,49,107,49z"/>
</svg>
