<?xml version="1.0" encoding="utf-8"?>
<!-- Generator: Adobe Illustrator 16.0.0, SVG Export Plug-In . SVG Version: 6.00 Build 0)  -->
<!DOCTYPE svg PUBLIC "-//W3C//DTD SVG 1.1//EN" "http://www.w3.org/Graphics/SVG/1.1/DTD/svg11.dtd">
<svg version="1.1" id="Laag_1" xmlns="http://www.w3.org/2000/svg" xmlns:xlink="http://www.w3.org/1999/xlink" x="0px" y="0px"
	 width="125px" height="125px" viewBox="0 0 125 125" enable-background="new 0 0 125 125" xml:space="preserve">
<rect y="-31" fill="#009245" width="125" height="11"/>
<rect x="-25" fill="#009245" width="5" height="125"/>
<g>
	<path fill-rule="evenodd" clip-rule="evenodd" fill="#808080" d="M68.447,56.937c2.627,0.057,16.481,0.002,19.1,0.179
		c3.701,0.249,6.879,3.557,7.173,7.291c0.062,0.794,0.06,1.592,0.06,2.387c-0.007,11.904,0.007,23.809-0.048,35.713
		c-0.011,2.314,0.908,3.927,2.961,4.883c2.096,0.978,4.085,0.575,5.825-0.82c1.739-1.395,2.281-3.238,1.834-5.467
		c-0.902-4.506-1.747-9.023-2.521-13.553c-0.792-4.631-1.492-9.277-2.177-13.925c-0.135-0.913-0.03-1.864-0.003-2.799
		c0.178-6.018,0.366-12.036,0.549-18.054c0.011-0.34,0.002-0.682,0.002-1.129c-0.525-0.025-0.963-0.061-1.4-0.069
		c-4.618-0.079-7.617-3.123-7.578-7.752c0.026-3.252,0.148-6.505,0.146-9.758c-0.001-0.548-0.281-1.206-0.648-1.624
		c-1.707-1.944-3.484-3.824-5.245-5.72c-0.675-0.726-0.65-1.262,0.158-1.961c2.261-1.957,2.238-2.01,4.302,0.034
		c3.788,3.75,7.543,7.536,11.346,11.271c2.447,2.4,3.441,5.322,3.433,8.69c-0.022,8.929-0.1,17.858,0.044,26.784
		c0.05,3.124,0.564,6.259,1.066,9.357c1.105,6.819,2.05,13.688,3.615,20.404c1.131,4.843-2.256,9.182-6.389,10.819
		c-4.561,1.808-9.18,0.599-12.305-3.188c-1.496-1.813-2.026-3.953-2.024-6.273c0.013-11.871,0.008-23.738,0.003-35.608
		c0-0.691,0.013-1.391-0.082-2.072c-0.224-1.623-1.392-2.663-3.031-2.69c-2.181-0.034-15.582,0.036-17.761-0.035L68.447,56.937z
		 M100.57,48.009c0-1.548,0.016-3.091-0.002-4.636c-0.033-2.759-1.138-3.813-3.96-3.798c-0.037,0.088-0.11,0.183-0.112,0.274
		c-0.011,1.418-0.026,2.836-0.014,4.252C96.501,46.326,98.118,47.919,100.57,48.009z"/>
	<path fill-rule="evenodd" clip-rule="evenodd" fill="#009245" d="M80.82,19.303c1.388,0,2.523-1.231,2.523-2.738v-2.94
		c0-1.505-1.231-2.737-2.736-2.737H63.641c-1.506,0-2.737-1.231-2.737-2.738V6.892c0-1.505-1.231-2.737-2.736-2.737H39.518
		c-1.506,0-2.736,1.232-2.736,2.737v1.257c0,1.507-1.232,2.738-2.738,2.738H17.077c-1.506,0-2.737,1.232-2.737,2.737v2.94
		c0,1.507,1.231,2.738,2.737,2.738h0.136c1.506,0,2.736,1.232,2.736,2.737v87.653c0,1.504-1.23,2.736-2.736,2.736h-0.136
		c-1.506,0-2.737,1.232-2.737,2.738v2.941c0,1.505,1.231,2.736,2.737,2.736h63.53c1.505,0,2.736-1.231,2.736-2.736v-2.941
		c0-1.506-1.136-2.738-2.523-2.738c-1.389,0-2.525-1.232-2.525-2.736V22.04C78.295,20.535,79.432,19.303,80.82,19.303z"/>
</g>
</svg>
