<?xml version="1.0" encoding="utf-8"?>
<!-- Generator: Adobe Illustrator 16.0.0, SVG Export Plug-In . SVG Version: 6.00 Build 0)  -->
<!DOCTYPE svg PUBLIC "-//W3C//DTD SVG 1.1//EN" "http://www.w3.org/Graphics/SVG/1.1/DTD/svg11.dtd">
<svg version="1.1" xmlns="http://www.w3.org/2000/svg" xmlns:xlink="http://www.w3.org/1999/xlink" x="0px" y="0px" width="125px"
	 height="125px" viewBox="0 0 125 125" enable-background="new 0 0 125 125" xml:space="preserve">
<g id="Laag_2" display="none">
	<g id="LoxTwL_1_" display="inline">
		
			<image overflow="visible" width="950" height="887" id="LoxTwL" xlink:href="1FCB00C43F33B032.jpg"  transform="matrix(0.0695 0 0 0.0695 35.8105 11.4517)">
		</image>
	</g>
</g>
<g id="Laag_1">
	<rect y="-31" fill="#009245" width="125" height="11"/>
	<rect x="-25" fill="#009245" width="5" height="125"/>
	<g>
		<path fill="#FFFFFF" stroke="#000000" stroke-width="3" stroke-miterlimit="10" d="M104.837,49
			c1-16.625-16.789-32.125-37.5-32.125c-20.711,0-37.5,14.383-37.5,32.125c0,0,1.625,6.75-9.5,16.875
			c-1.042,0.667,0.375,3.25,7.25,6c1.546,0.725-2.75,2.875-2.5,4s4.25,2.5,4.25,2.5s-2.5,0.5-2.5,2.5s3.827,1.27,3.5,3.75
			c-1.75,5.75-6.75,15.75,23,10.75l4,12.75l41-3.75l-7.75-20.5C90.587,83.875,106.583,58.717,104.837,49z"/>
		<g>
			<path fill="none" stroke="#000000" stroke-miterlimit="10" d="M96.055,37.85c-0.459-1.939-1.91-3.38-3.688-3.925
				c-0.01-0.054-0.012-0.107-0.023-0.162c-0.619-2.605-3.171-4.227-5.775-3.744c0.121-0.667,0.112-1.367-0.055-2.068
				c-0.646-2.731-3.386-4.421-6.117-3.773c-0.598,0.142-1.133,0.398-1.618,0.718c-1.271-1.438-3.257-2.164-5.258-1.689
				c-0.263,0.063-0.507,0.163-0.751,0.261c-0.688-0.137-1.407-0.145-2.132,0.027c-0.909,0.215-1.688,0.681-2.312,1.288
				c-1.166-0.947-2.729-1.377-4.301-1.004c-0.342,0.081-0.666,0.196-0.973,0.34c-0.704-0.124-1.443-0.11-2.183,0.065
				c-1.758,0.417-3.106,1.65-3.75,3.202c-0.802-0.233-1.667-0.29-2.537-0.083c-2,0.474-3.426,2.087-3.766,3.988
				c-0.713-0.158-1.467-0.179-2.226,0.001c-2.687,0.638-4.348,3.332-3.711,6.019c-2.687,0.637-4.349,3.332-3.711,6.019
				c0.637,2.687,3.332,4.349,6.019,3.711c0.614-0.146,1.166-0.409,1.657-0.745c0.019,0.114,0.019,0.227,0.045,0.341
				c0.637,2.687,3.332,4.349,6.019,3.711c1.28-0.304,2.316-1.083,2.993-2.097c1.016,2.024,3.312,3.171,5.611,2.626
				c0.215-0.051,0.409-0.135,0.609-0.21c1.207,2.589,3.971,4.149,6.85,3.792c1.084,2.655,3.68,4.37,6.517,4.349
				c0.019,0.101,0.028,0.202,0.055,0.304c0.637,2.687,3.331,4.348,6.019,3.711c2.686-0.637,4.349-3.332,3.712-6.019
				c2.686-0.637,4.349-3.333,3.71-6.019c-0.043-0.176-0.115-0.336-0.174-0.502c1.422-1.175,2.151-3.081,1.695-4.997
				c-0.079-0.337-0.195-0.654-0.338-0.955C94.999,43.583,96.735,40.715,96.055,37.85z"/>
			<path d="M78.583,26.988c-0.012-0.18-0.178-0.304-0.323-0.374c-0.865-0.413-1.975,0.797-2.551,1.263
				c-0.886,0.718-2.03,1.229-3.035,1.792c-0.351,0.197-0.803,0.413-1.275,0.584c-1.406-0.079-2.783,0.279-4.14,1.275
				c-0.32,0.234-0.681,0.45-1.047,0.67c-0.002-0.106,0.002-0.214-0.008-0.318c-0.108-1.005-1.31-1.374-1.873-2.066
				c-0.407-0.501-1.162,0.155-0.756,0.654c0.446,0.549,1.09,0.859,1.573,1.367c0.205,0.217,0.13,0.696-0.025,1.057
				c-0.419,0.303-0.8,0.644-1.076,1.063c-0.739,1.122-1.461,2.404-3.123,2.496c-0.279,0.016-0.634,0.022-0.972,0.063
				c-0.121-0.119-0.255-0.231-0.4-0.349c-0.634-0.517-0.848-1.159-1.081-1.871c-0.02-0.167-0.025-0.326-0.055-0.5
				c-0.108-0.623-0.194-1.153-0.468-1.729c-0.356-0.749-1.175-1.02-1.262-1.946c-0.035-0.368-1.028-0.392-0.998-0.072
				c0.122,1.291,1.415,1.937,1.667,3.257c0.026,0.138,0.046,0.272,0.068,0.408c-0.068,0.047-0.104,0.111-0.074,0.197
				c0.056,0.157,0.106,0.316,0.157,0.475c0.105,1.197-0.043,2.308-0.607,3.454c-0.054,0.109-0.007,0.187,0.082,0.242
				c-0.57,0.419-1.102,0.861-1.607,1.337c-0.551-0.975-1.512-1.821-2.316-2.561c-0.567-0.522-1.34-1.329-2.19-1.182
				c-0.372,0.065-0.52,0.404-0.586,0.726c-0.092,0.447,0.474,0.74,0.799,0.852c0.179,0.062,0.383,0.087,0.57,0.108
				c0.422,0.046,0.664,0.412,0.952,0.668c0.73,0.648,1.239,1.302,1.839,2.059c0.042,0.052,0.088,0.085,0.136,0.114
				c-0.713,0.737-1.407,1.532-2.15,2.392c-0.177,0.206-0.318,0.415-0.443,0.626c-0.066-0.012-0.14-0.011-0.222,0.014
				c-0.297,0.089-3.271,0.237-3.299-0.35c-0.051-1.094,0.604-2.108,0.451-3.223c-0.134-0.979-0.553-1.728-1.227-2.442
				c-0.624-0.661-1.496-0.617-2.33-0.648c-0.643-0.024-0.717,0.974-0.072,0.998c0.788,0.029,1.292-0.07,1.937,0.612
				c0.639,0.676,0.752,1.535,0.665,2.416c-0.085,0.845-0.574,1.736-0.4,2.611c0.237,1.19,2.837,1.275,4.065,1.09
				c-0.432,1.921,0.702,3.977,1.589,5.787c0.283,0.578,1.182,0.139,0.897-0.442c-0.528-1.077-1.13-2.083-1.471-3.244
				c-0.625-2.136,0.829-3.339,2.085-4.729c0.989-1.094,1.785-2.122,3.083-2.938c1.32-0.83,2.553-0.896,3.987-1.333
				c1.855-0.566,2.328-1.982,3.553-3.253c0.085-0.012,0.17-0.04,0.253-0.11c0.156-0.135,0.28-0.294,0.381-0.468
				c1.194-1.008,2.474-1.702,3.818-2.012c0.446,0.031,0.925-0.037,1.408-0.172c1.02-0.02,2.073,0.178,3.156,0.655
				c0.45,0.198,0.744-0.324,0.616-0.692c-0.149-0.429-0.741-1.324-1.279-0.994c1.487-0.914,3.171-1.531,4.686-2.419
				c0.198-0.115,0.265-0.305,0.25-0.485c0.025-0.068,0.038-0.144,0.032-0.228C78.594,27.143,78.59,27.066,78.583,26.988z"/>
			<path d="M83.763,29.812c-0.735,1.353-1.714,2.431-2.766,3.543c-0.451,0.477-0.905,0.877-1.368,1.218
				c-0.432,0.228-0.853,0.478-1.261,0.75c-1.034,0.494-2.172,0.737-3.495,0.813c0.066-0.124,0.138-0.244,0.188-0.382
				c0.22-0.607-0.724-0.939-0.943-0.334c-0.096,0.261-0.219,0.475-0.42,0.668c-0.025,0.023-0.035,0.051-0.055,0.076
				c-1.18-0.018-2.485-0.077-3.505,0.324c-0.204,0.08-0.4,0.179-0.6,0.27c-0.068-0.454-0.115-0.901,0.018-1.413
				c0.068-0.257,0.172-0.503,0.295-0.741c0.125,0.085,0.285,0.116,0.464,0.023c0.323-0.166,0.64-0.341,0.977-0.476
				c0.371-0.147,0.813-0.098,1.205-0.152c0.64-0.089,0.441-1.069-0.195-0.98c-0.439,0.061-0.872,0.037-1.296,0.183
				c-0.074,0.025-0.142,0.061-0.212,0.09c0.108-0.121,0.219-0.243,0.331-0.355c0.452-0.455-0.198-1.214-0.654-0.756
				c-0.736,0.738-1.323,1.537-1.739,2.497c-0.22,0.506-0.249,1.01-0.287,1.552c-0.026,0.353,0.049,0.672,0.122,0.995
				c-1.01,0.522-1.999,1.098-3.045,1.546c-0.614,0.263-1.2,0.555-1.782,0.854c-0.035-0.318-0.148-0.624-0.387-0.855
				c-0.46-0.446-1.22,0.205-0.756,0.654c0.136,0.132,0.212,0.334,0.167,0.527c-0.016,0.067-0.014,0.13-0.007,0.19
				c-0.414,0.224-0.827,0.445-1.246,0.673c-1.125,0.615-2.403,0.809-3.293,1.76c-0.564-0.316-1.192-0.508-1.883-0.614
				c-0.638-0.097-0.705,0.901-0.072,0.998c0.506,0.077,0.959,0.207,1.369,0.421c-0.062,0.079-0.128,0.155-0.179,0.247
				c-0.143,0.26-0.238,0.514-0.307,0.765c-0.672,1.806-0.123,3.436,1.204,5.254c0.145,0.199,0.343,0.225,0.514,0.154
				c0.056,0.141,0.107,0.282,0.151,0.425c0.188,0.609,1.171,0.421,0.98-0.196c-0.357-1.155-1.272-2.013-1.524-3.201
				c-0.043-0.205-0.064-0.387-0.089-0.571c0.962-3.785,5.487-5.018,8.935-6.487c0.484-0.178,0.96-0.364,1.416-0.576
				c2.688-1.249,6.188-1.101,9.094-1.466c1.276-0.16,2.655-1.628,3.116-2.808c1.422-1.331,2.722-2.842,3.645-4.539
				C84.895,29.816,84.072,29.247,83.763,29.812z"/>
			<path d="M89.447,46.497c-1.143-1.501-1.857-2.645-3.494-3.269c0.192-0.178,0.37-0.382,0.53-0.595
				c0.186-0.246,0.352-0.508,0.528-0.761c0.208-0.3,0.416-0.338,0.768-0.321c0.642,0.033,0.716-0.964,0.071-0.997
				c-0.724-0.037-1.225,0.174-1.665,0.752c-0.187,0.245-0.345,0.513-0.527,0.762c-0.115,0.16-0.406,0.614-0.636,0.622
				c-0.165,0.004-0.29,0.076-0.377,0.178c-0.981-0.211-1.954-0.36-2.919-0.69c-1.104-0.378-2.028-0.909-3.186-1.124
				c-2.78-0.516-4.794-0.076-7.285,1.047c-1.105,0.498-2.256,0.893-3.34,1.431c-0.457,0.226-0.864,0.498-1.257,0.782
				c-0.171-0.13-0.434-0.158-0.628-0.117c-0.354,0.074-0.94-0.684-1.12-0.934c-0.198-0.279-1.16-0.201-0.971,0.063
				c0.517,0.721,1.286,1.382,2.191,1.375c-0.814,0.615-1.623,1.227-2.721,1.546c-0.614,0.178-0.425,1.161,0.195,0.98
				c1.637-0.476,2.879-1.376,4.224-2.403c1.768-1.351,5.488-2.924,7.646-2.99c2.515-0.077,4.489,0.943,6.774,1.547
				c0.012,0.074,0.04,0.149,0.096,0.222c0.148,0.193,0.226,0.42,0.224,0.664c-0.009,0.642,0.988,0.717,0.997,0.072
				c0.002-0.239-0.032-0.464-0.098-0.679c0.68,0.137,1.371,0.267,2.031,0.435c1.515,0.386,2.317,1.91,3.19,3.056
				C89.083,47.666,89.836,47.007,89.447,46.497z"/>
			<path d="M91.381,49.745c-0.53-0.979-1.89-1.735-2.969-1.919c-0.26-0.044-0.513-0.098-0.77-0.146
				c-0.594-0.423-1.203-0.801-1.87-0.998c-1.624-0.479-4.669-1.401-6.299-0.887c-0.61,0.192-1.178,0.405-1.722,0.632
				c-0.027-0.398-0.1-0.791-0.251-1.19c-0.024-0.065-0.059-0.112-0.096-0.154c0.012-0.145,0.031-0.284,0.04-0.433
				c0.035-0.644-0.962-0.716-0.997-0.072c-0.038,0.725-0.101,1.373-0.319,2.07c-0.059,0.18-0.193,0.529-0.364,0.841
				c-0.011,0.007-0.019,0.014-0.027,0.021c-0.198-0.04-0.414-0.041-0.521,0.028c-0.819,0.531-2.063,0.076-2.965,0.109
				c-0.978,0.035-1.865,0.208-2.806,0.48c-0.658,0.191-1.077,0.576-1.511,1.081c-1.016,1.182-0.798,2.239-2.502,3.004
				c-0.514,0.231,0.393,0.533,0.68,0.403c0.736-0.33,1.246-0.602,1.759-1.225c1.144-1.389,0.854-2.512,3.089-3.079
				c1.24-0.315,2.6,0.115,3.836-0.03c-0.889,0.872-1.516,1.984-1.796,3.479c-0.104,0.251-0.201,0.507-0.282,0.77
				c-0.071,0.23,0.017,0.42,0.163,0.537c0.272,2.435,6.052,3.436,7.52,3.875c2.611,0.781,4.806,3.531,7.356,0.881
				c0.225-0.233-0.716-0.448-0.953-0.202c-1.659,1.725-4.126-0.406-5.869-1.074c-1.392-0.532-8.03-1.506-6.989-4.148
				c0.026-0.069,0.005-0.127-0.032-0.179c0,0,0,0,0-0.001c0.325-0.708,0.797-1.338,1.309-1.936c1.146,0.741,2.458,0.894,3.778,1.175
				c0.7,0.148,1.399,0.234,2.108,0.305c1.877,0.187,2.581,1.014,3.662,2.312c0.202,0.243,1.175,0.164,0.879-0.189
				c-0.887-1.066-1.743-2.188-3.203-2.446c-2.081-0.367-4.704-0.273-6.534-1.481c-0.078-0.051-0.212-0.07-0.353-0.067
				c0.223-0.25,0.452-0.494,0.677-0.736c1.439-1.545,3.221-1.643,5.209-1.543c1.859,0.093,3.607,0.555,5.414,0.951
				c0.362,0.217,0.728,0.452,1.113,0.703c0.789,0.517,1.701,1.079,2.612,1.324c0.238,0.064,0.432-0.035,0.548-0.191
				C91.373,50.297,91.54,50.041,91.381,49.745z"/>
			<path d="M53.054,31.402c-0.22-0.623-0.737-0.943-1.298-1.235c-0.566-0.295-1.136,0.527-0.566,0.825
				c0.33,0.171,0.706,0.333,0.901,0.667c0.15,0.255,0.147,0.855,0.159,1.146c0.018,0.417-0.394,0.489-0.714,0.582
				c-0.467,0.136-0.95,0.279-1.428,0.372c-0.632,0.123-0.438,1.104,0.196,0.98c0.943-0.183,2.665-0.406,2.906-1.551
				C53.32,32.665,53.23,31.9,53.054,31.402z"/>
			<path d="M65.473,26.656c-0.515-1.072-1.415-2.331-2.613-2.674c-0.618-0.178-0.954,0.765-0.334,0.942
				c0.95,0.273,1.644,1.329,2.05,2.174C64.854,27.678,65.753,27.238,65.473,26.656z"/>
			<path d="M77.366,23.741c-0.722-0.45-1.784-0.706-2.626-0.676c-0.342,0.012-0.566,0.25-0.526,0.597
				c0.105,0.929-0.961,2.592-1.859,2.842c-0.618,0.171-0.428,1.153,0.195,0.98c0.231-0.064,0.458-0.182,0.679-0.321
				c0.017-0.006,0.032-0.003,0.05-0.012c0.666-0.301,1.032-0.873,1.542-1.367c0.674-0.652,1.653-0.827,2.484-1.183
				C77.644,24.457,77.678,23.935,77.366,23.741z"/>
			<path d="M82.981,26.986c-0.344-0.202-0.896-0.249-0.868-0.716c0.034-0.611,0.424-1.077,0.793-1.528
				c0.335-0.409-0.207-0.926-0.633-0.731c-0.791,0.362-1.828,0.428-2.68,0.592c-0.167,0.032-0.316,0.173-0.377,0.34
				c-0.042-0.013-0.088-0.03-0.13-0.043c-0.617-0.188-0.952,0.755-0.335,0.942c0.558,0.17,1.111,0.313,1.393,0.873
				c0.312,0.625,0.263,1.241,0.312,1.908c0.025,0.331,0.447,0.477,0.711,0.351c0.52-0.248,0.87-1.043,1.495-1.077
				C83.104,27.874,83.461,27.267,82.981,26.986z"/>
			<path d="M70.677,24.023c-0.157-0.457-0.7-0.319-0.874,0.033c-0.296-0.028-0.641,0.194-0.588,0.582
				c0.115,0.872,0.502,1.698,0.548,2.58c0.027,0.521,0.791,0.789,0.971,0.203C71.078,26.281,71.062,25.15,70.677,24.023z"/>
			<path d="M93.819,39.581c-1.145-0.393-2.632-0.979-3.81-1.532c-0.054-0.152-0.107-0.304-0.178-0.446
				c-0.132-0.205-0.276-0.4-0.436-0.588c-0.676-0.893-0.538-1.83,0.119-2.77c0.208-0.297,0.34-0.641,0.46-0.993
				c0.047-0.062,0.099-0.12,0.145-0.186c0.186-0.265,0.224-0.524,0.199-0.781c0.148-0.351,0.336-0.676,0.637-0.929
				c0.494-0.416-0.16-1.171-0.654-0.756c-0.15,0.127-0.264,0.255-0.375,0.384c-0.022-0.092-0.041-0.185-0.049-0.277
				c-0.049-0.642-1.029-0.44-0.98,0.196c0.032,0.412,0.032,0.415,0.25,0.763c0.127,0.202,0.156,0.393,0.131,0.574
				c-0.025,0.077-0.047,0.165-0.07,0.247c-0.153,0.356-0.495,0.672-0.754,0.95c-0.441,0.473-0.592,1.631-1.148,1.881
				c-0.665,0.298-1.392,0.513-1.837,1.153c-0.813,1.168-1.526,2.745-3.211,2.843c-0.634,0.037-0.713,1.035-0.072,0.997
				c1.109-0.064,1.958-0.478,2.704-1.326c0.434-0.495,0.798-0.994,1.133-1.56c0.428-0.721,1.073-0.824,1.67-1.114
				c0.071,0.313,0.233,0.589,0.524,0.926c0.335,0.386,0.569,0.83,0.74,1.305c0.255,1.357,0.288,2.883,0.42,4.257
				c0.054,0.564,0.977,0.497,0.989-0.062c0.009-0.416,0.026-0.857,0.034-1.31c0.228-0.061,0.408-0.255,0.333-0.551
				c-0.306-1.194,2.491-0.381,2.883-0.328C94.183,40.629,94.345,39.762,93.819,39.581z"/>
		</g>
	</g>
</g>
</svg>
